<mxfile host="app.diagrams.net" modified="2024-06-26T19:41:57.250Z" agent="Mozilla/5.0 (X11; Ubuntu; Linux x86_64; rv:126.0) Gecko/20100101 Firefox/126.0" etag="b4JVive1ro6AzCF0qT6f" version="24.6.3" type="github">
  <diagram name="Page-1" id="bMU_MCOznKpETQc8-IzX">
    <mxGraphModel dx="1362" dy="1895" grid="1" gridSize="10" guides="1" tooltips="1" connect="1" arrows="1" fold="1" page="1" pageScale="1" pageWidth="850" pageHeight="1100" math="0" shadow="0">
      <root>
        <mxCell id="0" />
        <mxCell id="1" parent="0" />
        <mxCell id="bspnGtZKbcMRF_R6GHRS-6" style="edgeStyle=orthogonalEdgeStyle;rounded=0;orthogonalLoop=1;jettySize=auto;html=1;" edge="1" parent="1" source="bspnGtZKbcMRF_R6GHRS-1">
          <mxGeometry relative="1" as="geometry">
            <mxPoint x="270" y="260" as="targetPoint" />
          </mxGeometry>
        </mxCell>
        <mxCell id="bspnGtZKbcMRF_R6GHRS-1" value="BH" style="whiteSpace=wrap;html=1;aspect=fixed;" vertex="1" parent="1">
          <mxGeometry x="60" y="220" width="80" height="80" as="geometry" />
        </mxCell>
        <mxCell id="bspnGtZKbcMRF_R6GHRS-7" style="edgeStyle=orthogonalEdgeStyle;rounded=0;orthogonalLoop=1;jettySize=auto;html=1;" edge="1" parent="1" source="bspnGtZKbcMRF_R6GHRS-2">
          <mxGeometry relative="1" as="geometry">
            <mxPoint x="700" y="260" as="targetPoint" />
          </mxGeometry>
        </mxCell>
        <mxCell id="bspnGtZKbcMRF_R6GHRS-2" value="&lt;div&gt;T3 Atropia&lt;br&gt;&lt;/div&gt;&lt;div&gt;10.50.20.51&lt;/div&gt;&lt;div&gt;10.3.0.10&lt;br&gt;&lt;/div&gt;&lt;div&gt;port 22&lt;br&gt;&lt;/div&gt;" style="whiteSpace=wrap;html=1;aspect=fixed;" vertex="1" parent="1">
          <mxGeometry x="290" y="220" width="80" height="80" as="geometry" />
        </mxCell>
        <mxCell id="bspnGtZKbcMRF_R6GHRS-3" value="&lt;div&gt;T4 Pineland&lt;br&gt;&lt;/div&gt;&lt;div&gt;10.50.24.9&lt;/div&gt;&lt;div&gt;10.2.0.1&lt;br&gt;&lt;/div&gt;&lt;div&gt;port 23&lt;br&gt;&lt;/div&gt;" style="whiteSpace=wrap;html=1;aspect=fixed;" vertex="1" parent="1">
          <mxGeometry x="720" y="230" width="80" height="80" as="geometry" />
        </mxCell>
        <mxCell id="bspnGtZKbcMRF_R6GHRS-4" value="&lt;div&gt;Victoria&lt;br&gt;&lt;/div&gt;&lt;div&gt;10.3.0.27&lt;/div&gt;&lt;div&gt;port 21, 80&lt;br&gt;&lt;/div&gt;" style="whiteSpace=wrap;html=1;aspect=fixed;" vertex="1" parent="1">
          <mxGeometry x="340" y="350" width="80" height="80" as="geometry" />
        </mxCell>
        <mxCell id="bspnGtZKbcMRF_R6GHRS-5" value="&lt;div&gt;&lt;br&gt;&lt;/div&gt;&lt;div&gt;Cortina&lt;/div&gt;&lt;div&gt;10.3.0.1&lt;/div&gt;&lt;div&gt;port 21, 80&lt;br&gt;&lt;/div&gt;" style="whiteSpace=wrap;html=1;aspect=fixed;" vertex="1" parent="1">
          <mxGeometry x="220" y="350" width="80" height="80" as="geometry" />
        </mxCell>
        <mxCell id="bspnGtZKbcMRF_R6GHRS-10" value="&lt;div&gt;mohammed&lt;br&gt;&lt;/div&gt;&lt;div&gt;10.2.0.2&lt;/div&gt;&lt;div&gt;port 21,80&lt;br&gt;&lt;/div&gt;" style="whiteSpace=wrap;html=1;aspect=fixed;" vertex="1" parent="1">
          <mxGeometry x="740" y="340" width="80" height="80" as="geometry" />
        </mxCell>
        <mxCell id="bspnGtZKbcMRF_R6GHRS-11" value="&lt;div&gt;atlantica&lt;br&gt;&lt;/div&gt;&lt;div&gt;10.2.0.3&lt;/div&gt;&lt;div&gt;port 22, 23&lt;br&gt;&lt;/div&gt;" style="whiteSpace=wrap;html=1;aspect=fixed;" vertex="1" parent="1">
          <mxGeometry x="880" y="230" width="80" height="80" as="geometry" />
        </mxCell>
        <mxCell id="bspnGtZKbcMRF_R6GHRS-13" value="&lt;div&gt;10.2.0.200&lt;/div&gt;&lt;div&gt;closed&lt;br&gt;&lt;/div&gt;" style="whiteSpace=wrap;html=1;aspect=fixed;" vertex="1" parent="1">
          <mxGeometry x="1320" y="510" width="80" height="80" as="geometry" />
        </mxCell>
        <mxCell id="bspnGtZKbcMRF_R6GHRS-14" value="&lt;div&gt;10.2.0.234&lt;/div&gt;&lt;div&gt;closed&lt;br&gt;&lt;/div&gt;" style="whiteSpace=wrap;html=1;aspect=fixed;" vertex="1" parent="1">
          <mxGeometry x="1250" y="620" width="80" height="80" as="geometry" />
        </mxCell>
        <mxCell id="bspnGtZKbcMRF_R6GHRS-15" value="10.4.0.0/24" style="whiteSpace=wrap;html=1;aspect=fixed;" vertex="1" parent="1">
          <mxGeometry x="730" y="650" width="80" height="80" as="geometry" />
        </mxCell>
        <mxCell id="bspnGtZKbcMRF_R6GHRS-16" value="10.5.0.0/24" style="whiteSpace=wrap;html=1;aspect=fixed;" vertex="1" parent="1">
          <mxGeometry x="860" y="650" width="80" height="80" as="geometry" />
        </mxCell>
        <mxCell id="bspnGtZKbcMRF_R6GHRS-17" value="&lt;div&gt;baja republic&lt;br&gt;&lt;/div&gt;&lt;div&gt;10.4.0.1&lt;/div&gt;" style="whiteSpace=wrap;html=1;aspect=fixed;" vertex="1" parent="1">
          <mxGeometry x="290" y="20" width="80" height="80" as="geometry" />
        </mxCell>
        <mxCell id="bspnGtZKbcMRF_R6GHRS-18" value="&lt;div&gt;10.5.0.1&lt;/div&gt;&lt;div&gt;21 80&lt;br&gt;&lt;/div&gt;" style="whiteSpace=wrap;html=1;aspect=fixed;" vertex="1" parent="1">
          <mxGeometry x="200" y="-140" width="80" height="80" as="geometry" />
        </mxCell>
        <mxCell id="bspnGtZKbcMRF_R6GHRS-19" value="&lt;div&gt;10.5.0.57&lt;/div&gt;&lt;div&gt;21, 80&lt;br&gt;&lt;/div&gt;" style="whiteSpace=wrap;html=1;aspect=fixed;" vertex="1" parent="1">
          <mxGeometry x="360" y="-130" width="80" height="80" as="geometry" />
        </mxCell>
      </root>
    </mxGraphModel>
  </diagram>
</mxfile>
